<svg xmlns="http://www.w3.org/2000/svg" version="1.1" xmlns:xlink="http://www.w3.org/1999/xlink" width="1024" height="1024"><svg width="1024" height="1024" viewBox="0 0 1024 1024" fill="none" xmlns="http://www.w3.org/2000/svg">
<rect width="1024" height="1024" fill="#0B1B2D"></rect>
<path d="M102.8 654.8C102.8 669.38 114.62 681.2 129.2 681.2H228.8C243.38 681.2 255.2 669.38 255.2 654.8V593H264.8V653.6C264.8 674.808 247.608 692 226.4 692H131.6C110.392 692 93.2 674.808 93.2 653.6V593H102.8V654.8ZM102.8 563H93.2V461.6H102.8V563ZM264.8 563H255.2V461.6H264.8V563ZM226.4 332C247.608 332 264.8 349.192 264.8 370.4V408.904C265.498 409.152 266 409.817 266 410.6V431.6H255.2V369.2C255.2 354.62 243.38 342.8 228.8 342.8H129.2C114.62 342.8 102.8 354.62 102.8 369.2V431.6H92V415.4C92 414.617 92.5012 413.952 93.2 413.704V405.095C92.5014 404.847 92 404.183 92 403.4V393.8C92 393.017 92.5012 392.352 93.2 392.104V370.4C93.2 349.192 110.392 332 131.6 332H226.4ZM203 351.2C207.308 351.2 210.8 354.692 210.8 359C210.8 363.308 207.308 366.8 203 366.8H155C150.692 366.8 147.2 363.308 147.2 359C147.2 354.692 150.692 351.2 155 351.2H203Z" fill="white"></path>
<path d="M275.213 436.343C289.859 440.228 299.832 456.119 297.703 473.856C297.764 479.096 298.612 484.648 300.223 489.026C301.456 492.375 302.747 494.064 303.657 494.877H325V529.123H302.113C298.857 530.634 294.432 535.813 295.656 544.526L295.756 545.231V545.945C295.756 553.146 294.668 561.45 291.974 568.769C289.403 575.753 284.529 584.008 275.506 587.36L273.782 588H248V567.573H269.343C270.253 566.76 271.544 565.07 272.777 561.721C274.388 557.344 275.236 551.792 275.297 546.551C273.48 531.409 280.483 517.613 291.685 511.482C286.263 507.417 282.98 501.379 281.026 496.073C278.332 488.754 277.244 480.45 277.244 473.249V472.535L277.344 471.83C278.568 463.117 274.143 457.938 270.887 456.427H248V436H273.924L275.213 436.343Z" fill="#09E7D9"></path>
<path d="M82.7864 436.343C68.141 440.228 58.1687 456.119 60.2971 473.856C60.236 479.096 59.388 484.648 57.7769 489.026C56.5443 492.375 55.2531 494.064 54.3437 494.877H33V529.123H55.8875C59.1422 530.634 63.5678 535.813 62.3437 544.526L62.2439 545.231V545.945C62.2439 553.146 63.332 561.45 66.026 568.769C68.5969 575.753 73.471 584.008 82.4938 587.36L84.2186 588H110V567.573H88.6563C87.7469 566.76 86.4557 565.07 85.2231 561.721C83.612 557.344 82.764 551.792 82.7029 546.551C84.5201 531.409 77.5162 517.613 66.315 511.482C71.7365 507.417 75.0208 501.379 76.974 496.073C79.668 488.754 80.7561 480.45 80.7561 473.249V472.535L80.6563 471.83C79.4322 463.117 83.8578 457.938 87.1125 456.427H110V436H84.0764L82.7864 436.343Z" fill="#09E7D9"></path>
<path d="M105 515.585V503.957L151.835 483.474V496.853L119.769 509.638L120.201 508.944V510.596L119.769 509.902L151.835 522.687V536.066L105 515.585ZM195.577 466L173.623 547H161.415L183.369 466H195.577ZM252 515.585L205.165 536.066V522.687L237.231 509.902L236.799 510.596V508.944L237.231 509.638L205.165 496.853V483.474L252 503.957V515.585Z" fill="#09E7D9"></path>
<path d="M372.706 506.842H353.473L382.777 422.091H405.906L435.169 506.842H415.936L394.673 441.458H394.01L372.706 506.842ZM371.504 473.529H416.931V487.517H371.504V473.529ZM462.711 422.091V506.842H445.054V422.091H462.711ZM495.009 508.042C490.948 508.042 487.328 507.339 484.15 505.932C480.972 504.497 478.458 502.387 476.606 499.601C474.782 496.787 473.871 493.282 473.871 489.089C473.871 485.558 474.521 482.592 475.819 480.192C477.118 477.792 478.886 475.861 481.124 474.399C483.363 472.937 485.905 471.833 488.751 471.088C491.625 470.343 494.637 469.819 497.787 469.515C501.49 469.129 504.474 468.771 506.74 468.439C509.006 468.081 510.65 467.557 511.672 466.867C512.695 466.177 513.205 465.156 513.205 463.805V463.556C513.205 460.935 512.377 458.908 510.719 457.473C509.089 456.038 506.767 455.321 503.756 455.321C500.577 455.321 498.049 456.025 496.17 457.432C494.291 458.811 493.047 460.549 492.44 462.646L476.109 461.322C476.938 457.459 478.568 454.121 481 451.307C483.432 448.465 486.568 446.286 490.409 444.769C494.278 443.224 498.754 442.451 503.839 442.451C507.376 442.451 510.76 442.865 513.993 443.693C517.254 444.52 520.142 445.803 522.656 447.541C525.198 449.279 527.202 451.514 528.666 454.245C530.13 456.949 530.863 460.191 530.863 463.97V506.842H514.118V498.028H513.62C512.598 500.015 511.23 501.766 509.516 503.284C507.803 504.773 505.745 505.945 503.341 506.801C500.937 507.629 498.16 508.042 495.009 508.042ZM500.067 495.876C502.664 495.876 504.957 495.365 506.947 494.345C508.937 493.296 510.498 491.889 511.63 490.124C512.764 488.358 513.33 486.358 513.33 484.123V477.378C512.778 477.737 512.017 478.068 511.051 478.372C510.111 478.647 509.047 478.909 507.859 479.157C506.671 479.378 505.483 479.585 504.294 479.778C503.106 479.944 502.029 480.096 501.061 480.234C498.989 480.537 497.179 481.02 495.631 481.682C494.084 482.344 492.882 483.241 492.025 484.371C491.168 485.475 490.741 486.855 490.741 488.51C490.741 490.91 491.611 492.745 493.352 494.014C495.12 495.255 497.358 495.876 500.067 495.876ZM562.219 470.095V506.842H544.561V443.279H561.39V454.494H562.136C563.545 450.797 565.907 447.872 569.224 445.72C572.539 443.541 576.56 442.451 581.285 442.451C585.706 442.451 589.561 443.417 592.849 445.348C596.137 447.279 598.694 450.038 600.517 453.624C602.341 457.183 603.252 461.432 603.252 466.37V506.842H585.596V469.515C585.623 465.626 584.628 462.59 582.611 460.412C580.594 458.204 577.817 457.101 574.28 457.101C571.903 457.101 569.803 457.611 567.98 458.632C566.183 459.652 564.774 461.142 563.752 463.101C562.757 465.032 562.247 467.364 562.219 470.095ZM659.146 506.842H639.914L669.218 422.091H692.346L721.609 506.842H702.377L681.113 441.458H680.451L659.146 506.842ZM657.944 473.529H703.371V487.517H657.944V473.529ZM749.151 470.095V506.842H731.494V443.279H748.322V454.494H749.068C750.477 450.797 752.84 447.872 756.156 445.72C759.472 443.541 763.492 442.451 768.218 442.451C772.639 442.451 776.494 443.417 779.782 445.348C783.07 447.279 785.626 450.038 787.45 453.624C789.273 457.183 790.186 461.432 790.186 466.37V506.842H772.528V469.515C772.556 465.626 771.561 462.59 769.544 460.412C767.527 458.204 764.749 457.101 761.213 457.101C758.837 457.101 756.737 457.611 754.913 458.632C753.117 459.652 751.708 461.142 750.685 463.101C749.69 465.032 749.179 467.364 749.151 470.095ZM822.256 508.042C818.194 508.042 814.575 507.339 811.396 505.932C808.219 504.497 805.705 502.387 803.853 499.601C802.03 496.787 801.117 493.282 801.117 489.089C801.117 485.558 801.767 482.592 803.065 480.192C804.364 477.792 806.132 475.861 808.371 474.399C810.609 472.937 813.151 471.833 815.997 471.088C818.871 470.343 821.883 469.819 825.033 469.515C828.736 469.129 831.72 468.771 833.986 468.439C836.252 468.081 837.896 467.557 838.918 466.867C839.941 466.177 840.452 465.156 840.452 463.805V463.556C840.452 460.935 839.623 458.908 837.965 457.473C836.335 456.038 834.014 455.321 831.002 455.321C827.824 455.321 825.296 456.025 823.417 457.432C821.538 458.811 820.295 460.549 819.686 462.646L803.356 461.322C804.184 457.459 805.815 454.121 808.246 451.307C810.678 448.465 813.814 446.286 817.655 444.769C821.524 443.224 826 442.451 831.085 442.451C834.622 442.451 838.007 442.865 841.239 443.693C844.5 444.52 847.388 445.803 849.902 447.541C852.445 449.279 854.448 451.514 855.912 454.245C857.377 456.949 858.109 460.191 858.109 463.97V506.842H841.364V498.028H840.866C839.844 500.015 838.477 501.766 836.763 503.284C835.05 504.773 832.992 505.945 830.587 506.801C828.183 507.629 825.406 508.042 822.256 508.042ZM827.313 495.876C829.91 495.876 832.204 495.365 834.193 494.345C836.183 493.296 837.744 491.889 838.877 490.124C840.01 488.358 840.576 486.358 840.576 484.123V477.378C840.024 477.737 839.264 478.068 838.297 478.372C837.357 478.647 836.294 478.909 835.105 479.157C833.917 479.378 832.729 479.585 831.54 479.778C830.352 479.944 829.275 480.096 828.308 480.234C826.235 480.537 824.425 481.02 822.878 481.682C821.33 482.344 820.129 483.241 819.272 484.371C818.416 485.475 817.987 486.855 817.987 488.51C817.987 490.91 818.857 492.745 820.598 494.014C822.366 495.255 824.605 495.876 827.313 495.876ZM880.429 530.679C878.191 530.679 876.091 530.499 874.129 530.141C872.195 529.809 870.592 529.382 869.321 528.858L873.3 515.698C875.372 516.333 877.237 516.678 878.895 516.733C880.581 516.788 882.032 516.402 883.248 515.574C884.491 514.747 885.5 513.339 886.275 511.354L887.312 508.663L864.471 443.279H883.04L896.22 489.958H896.888L910.187 443.279H928.886L904.136 513.712C902.946 517.133 901.334 520.113 899.291 522.65C897.272 525.216 894.714 527.189 891.62 528.568C888.525 529.975 884.795 530.679 880.429 530.679ZM954.364 508.042C950.302 508.042 946.678 507.339 943.506 505.932C940.327 504.497 937.808 502.387 935.958 499.601C934.138 496.787 933.224 493.282 933.224 489.089C933.224 485.558 933.877 482.592 935.175 480.192C936.472 477.792 938.238 475.861 940.481 474.399C942.715 472.937 945.257 471.833 948.106 471.088C950.978 470.343 953.988 469.819 957.136 469.515C960.845 469.129 963.824 468.771 966.09 468.439C968.355 468.081 970.006 467.557 971.027 466.867C972.049 466.177 972.555 465.156 972.555 463.805V463.556C972.555 460.935 971.726 458.908 970.075 457.473C968.439 456.038 966.12 455.321 963.11 455.321C959.931 455.321 957.405 456.025 955.524 457.432C953.642 458.811 952.398 460.549 951.792 462.646L935.459 461.322C936.288 457.459 937.924 454.121 940.35 451.307C942.784 448.465 945.925 446.286 949.764 444.769C953.627 443.224 958.104 442.451 963.195 442.451C966.727 442.451 970.113 442.865 973.346 443.693C976.61 444.52 979.497 445.803 982.008 447.541C984.55 449.279 986.554 451.514 988.021 454.245C989.487 456.949 990.217 460.191 990.217 463.97V506.842H973.469V498.028H972.97C971.949 500.015 970.582 501.766 968.87 503.284C967.157 504.773 965.099 505.945 962.696 506.801C960.292 507.629 957.512 508.042 954.364 508.042ZM959.417 495.876C962.02 495.876 964.308 495.365 966.297 494.345C968.286 493.296 969.852 491.889 970.981 490.124C972.118 488.358 972.686 486.358 972.686 484.123V477.378C972.133 477.737 971.373 478.068 970.405 478.372C969.461 478.647 968.401 478.909 967.211 479.157C966.021 479.378 964.838 479.585 963.648 479.778C962.458 479.944 961.383 480.096 960.415 480.234C958.342 480.537 956.529 481.02 954.986 481.682C953.435 482.344 952.237 483.241 951.377 484.371C950.525 485.475 950.095 486.855 950.095 488.51C950.095 490.91 950.962 492.745 952.705 494.014C954.472 495.255 956.714 495.876 959.417 495.876Z" fill="white"></path>
<path d="M361.447 534.442H353V601.909H361.447V534.442Z" fill="#09E7D9"></path>
<path d="M388.764 543.991H395.705L412.027 583.794H412.59L428.912 543.991H435.854V591.942H430.412V555.51H429.944L414.935 591.942H409.682L394.673 555.51H394.204V591.942H388.764V543.991ZM461.397 592.691C458.145 592.691 455.293 591.919 452.838 590.374C450.399 588.828 448.492 586.666 447.115 583.888C445.756 581.109 445.075 577.863 445.075 574.148C445.075 570.401 445.756 567.132 447.115 564.338C448.492 561.543 450.399 559.374 452.838 557.829C455.293 556.283 458.145 555.51 461.397 555.51C464.649 555.51 467.495 556.283 469.934 557.829C472.388 559.374 474.296 561.543 475.656 564.338C477.032 567.132 477.72 570.401 477.72 574.148C477.72 577.863 477.032 581.109 475.656 583.888C474.296 586.666 472.388 588.828 469.934 590.374C467.495 591.919 464.649 592.691 461.397 592.691ZM461.397 587.728C463.868 587.728 465.9 587.096 467.495 585.831C469.089 584.567 470.27 582.905 471.036 580.844C471.802 578.784 472.185 576.552 472.185 574.148C472.185 571.744 471.802 569.504 471.036 567.428C470.27 565.352 469.089 563.674 467.495 562.394C465.9 561.114 463.868 560.475 461.397 560.475C458.927 560.475 456.895 561.114 455.3 562.394C453.705 563.674 452.525 565.352 451.759 567.428C450.993 569.504 450.61 571.744 450.61 574.148C450.61 576.552 450.993 578.784 451.759 580.844C452.525 582.905 453.705 584.567 455.3 585.831C456.895 587.096 458.927 587.728 461.397 587.728ZM486.918 591.942V543.991H492.452V561.692H492.922C493.329 561.067 493.891 560.271 494.61 559.304C495.345 558.32 496.392 557.446 497.752 556.681C499.128 555.901 500.989 555.51 503.334 555.51C506.367 555.51 509.04 556.268 511.355 557.781C513.668 559.295 515.474 561.442 516.771 564.221C518.069 566.999 518.718 570.277 518.718 574.055C518.718 577.863 518.069 581.165 516.771 583.958C515.474 586.737 513.676 588.891 511.378 590.421C509.079 591.935 506.429 592.691 503.428 592.691C501.114 592.691 499.261 592.309 497.87 591.545C496.478 590.764 495.407 589.882 494.657 588.899C493.907 587.9 493.329 587.073 492.922 586.417H492.265V591.942H486.918ZM492.359 573.96C492.359 576.677 492.757 579.072 493.555 581.149C494.352 583.209 495.517 584.825 497.049 585.995C498.582 587.151 500.458 587.728 502.678 587.728C504.991 587.728 506.922 587.119 508.47 585.902C510.033 584.668 511.206 583.014 511.987 580.938C512.784 578.846 513.184 576.52 513.184 573.96C513.184 571.432 512.793 569.153 512.011 567.124C511.245 565.079 510.08 563.463 508.517 562.277C506.969 561.075 505.023 560.475 502.678 560.475C500.426 560.475 498.534 561.044 497.002 562.184C495.47 563.307 494.313 564.884 493.531 566.913C492.75 568.926 492.359 571.276 492.359 573.96ZM527.184 591.942V555.979H532.718V591.942H527.184ZM529.998 549.985C528.919 549.985 527.989 549.618 527.207 548.884C526.441 548.15 526.058 547.269 526.058 546.238C526.058 545.209 526.441 544.326 527.207 543.593C527.989 542.859 528.919 542.492 529.998 542.492C531.076 542.492 531.999 542.859 532.765 543.593C533.547 544.326 533.938 545.209 533.938 546.238C533.938 547.269 533.547 548.15 532.765 548.884C531.999 549.618 531.076 549.985 529.998 549.985ZM548.389 543.991V591.942H542.855V543.991H548.389ZM573.629 592.691C570.158 592.691 567.164 591.927 564.647 590.397C562.146 588.852 560.215 586.698 558.855 583.935C557.51 581.156 556.838 577.925 556.838 574.242C556.838 570.558 557.51 567.311 558.855 564.501C560.215 561.676 562.107 559.476 564.529 557.899C566.969 556.306 569.814 555.51 573.066 555.51C574.942 555.51 576.795 555.822 578.624 556.447C580.453 557.071 582.118 558.086 583.619 559.491C585.12 560.88 586.316 562.722 587.207 565.016C588.098 567.311 588.544 570.136 588.544 573.493V575.834H560.778V571.058H582.916C582.916 569.028 582.509 567.217 581.696 565.625C580.899 564.033 579.757 562.777 578.272 561.855C576.803 560.935 575.067 560.475 573.066 560.475C570.861 560.475 568.954 561.02 567.344 562.113C565.75 563.19 564.522 564.595 563.662 566.327C562.802 568.06 562.372 569.918 562.372 571.9V575.084C562.372 577.8 562.842 580.103 563.779 581.992C564.733 583.865 566.054 585.293 567.742 586.276C569.431 587.244 571.393 587.728 573.629 587.728C575.082 587.728 576.396 587.525 577.569 587.119C578.757 586.698 579.78 586.074 580.641 585.246C581.501 584.403 582.165 583.357 582.634 582.108L587.981 583.607C587.418 585.418 586.473 587.01 585.143 588.384C583.814 589.741 582.173 590.803 580.219 591.568C578.265 592.317 576.068 592.691 573.629 592.691ZM631.108 591.942H616.287V543.991H631.764C636.423 543.991 640.41 544.951 643.724 546.871C647.039 548.775 649.579 551.515 651.346 555.089C653.112 558.648 653.996 562.91 653.996 567.873C653.996 572.868 653.105 577.168 651.322 580.774C649.54 584.364 646.945 587.127 643.537 589.063C640.129 590.983 635.985 591.942 631.108 591.942ZM622.103 586.791H630.732C634.704 586.791 637.994 586.027 640.605 584.497C643.216 582.967 645.162 580.79 646.445 577.965C647.726 575.139 648.367 571.775 648.367 567.873C648.367 564.002 647.735 560.669 646.468 557.876C645.201 555.066 643.31 552.911 640.793 551.413C638.276 549.899 635.141 549.142 631.389 549.142H622.103V586.791ZM678.104 592.691C674.633 592.691 671.639 591.927 669.122 590.397C666.62 588.852 664.69 586.698 663.33 583.935C661.985 581.156 661.313 577.925 661.313 574.242C661.313 570.558 661.985 567.311 663.33 564.501C664.69 561.676 666.581 559.476 669.004 557.899C671.443 556.306 674.289 555.51 677.541 555.51C679.417 555.51 681.269 555.822 683.099 556.447C684.928 557.071 686.593 558.086 688.094 559.491C689.595 560.88 690.791 562.722 691.682 565.016C692.573 567.311 693.019 570.136 693.019 573.493V575.834H665.253V571.058H687.39C687.39 569.028 686.984 567.217 686.171 565.625C685.374 564.033 684.232 562.777 682.747 561.855C681.278 560.935 679.542 560.475 677.541 560.475C675.336 560.475 673.429 561.02 671.819 562.113C670.224 563.19 668.997 564.595 668.137 566.327C667.277 568.06 666.847 569.918 666.847 571.9V575.084C666.847 577.8 667.316 580.103 668.254 581.992C669.208 583.865 670.529 585.293 672.217 586.276C673.906 587.244 675.868 587.728 678.104 587.728C679.558 587.728 680.871 587.525 682.043 587.119C683.232 586.698 684.256 586.074 685.116 585.246C685.976 584.403 686.64 583.357 687.109 582.108L692.456 583.607C691.893 585.418 690.947 587.01 689.618 588.384C688.289 589.741 686.647 590.803 684.693 591.568C682.739 592.317 680.543 592.691 678.104 592.691ZM729.796 555.979L716.475 591.942H710.847L697.527 555.979H703.53L713.474 584.638H713.849L723.793 555.979H729.796ZM794.509 543.991V591.942H788.881L762.709 554.293H762.241V591.942H756.425V543.991H762.053L788.318 581.734H788.787V543.991H794.509ZM820.03 592.691C816.778 592.691 813.925 591.919 811.47 590.374C809.031 588.828 807.124 586.666 805.748 583.888C804.388 581.109 803.708 577.863 803.708 574.148C803.708 570.401 804.388 567.132 805.748 564.338C807.124 561.543 809.031 559.374 811.47 557.829C813.925 556.283 816.778 555.51 820.03 555.51C823.282 555.51 826.128 556.283 828.566 557.829C831.02 559.374 832.928 561.543 834.288 564.338C835.664 567.132 836.352 570.401 836.352 574.148C836.352 577.863 835.664 581.109 834.288 583.888C832.928 586.666 831.02 588.828 828.566 590.374C826.128 591.919 823.282 592.691 820.03 592.691ZM820.03 587.728C822.5 587.728 824.533 587.096 826.127 585.831C827.722 584.567 828.902 582.905 829.668 580.844C830.435 578.784 830.818 576.552 830.818 574.148C830.818 571.744 830.435 569.504 829.668 567.428C828.902 565.352 827.722 563.674 826.127 562.394C824.533 561.114 822.5 560.475 820.03 560.475C817.559 560.475 815.528 561.114 813.933 562.394C812.338 563.674 811.157 565.352 810.391 567.428C809.626 569.504 809.242 571.744 809.242 574.148C809.242 576.552 809.626 578.784 810.391 580.844C811.157 582.905 812.338 584.567 813.933 585.831C815.528 587.096 817.559 587.728 820.03 587.728ZM860.465 555.979V560.662H841.799V555.979H860.465ZM847.239 547.362H852.773V581.64C852.773 583.201 853 584.372 853.454 585.152C853.923 585.917 854.517 586.432 855.236 586.698C855.971 586.948 856.745 587.073 857.558 587.073C858.168 587.073 858.668 587.041 859.058 586.979C859.449 586.901 859.762 586.838 859.997 586.791L861.122 591.755C860.747 591.896 860.223 592.036 859.551 592.176C858.879 592.333 858.026 592.411 856.995 592.411C855.432 592.411 853.899 592.075 852.399 591.404C850.913 590.733 849.678 589.711 848.693 588.337C847.724 586.963 847.239 585.23 847.239 583.139V547.362ZM883.506 592.691C880.036 592.691 877.042 591.927 874.524 590.397C872.023 588.852 870.092 586.698 868.732 583.935C867.388 581.156 866.715 577.925 866.715 574.242C866.715 570.558 867.388 567.311 868.732 564.501C870.092 561.676 871.984 559.476 874.407 557.899C876.846 556.306 879.692 555.51 882.944 555.51C884.819 555.51 886.675 555.822 888.502 556.447C890.33 557.071 891.996 558.086 893.494 559.491C894.999 560.88 896.196 562.722 897.087 565.016C897.978 567.311 898.423 570.136 898.423 573.493V575.834H870.655V571.058H892.795C892.795 569.028 892.388 567.217 891.574 565.625C890.775 564.033 889.631 562.777 888.149 561.855C886.682 560.935 884.945 560.475 882.944 560.475C880.739 560.475 878.831 561.02 877.221 562.113C875.626 563.19 874.399 564.595 873.539 566.327C872.68 568.06 872.25 569.918 872.25 571.9V575.084C872.25 577.8 872.719 580.103 873.657 581.992C874.61 583.865 875.931 585.293 877.62 586.276C879.308 587.244 881.27 587.728 883.506 587.728C884.96 587.728 886.275 587.525 887.443 587.119C888.633 586.698 889.662 586.074 890.522 585.246C891.374 584.403 892.042 583.357 892.511 582.108L897.855 583.607C897.295 585.418 896.35 587.01 895.022 588.384C893.693 589.741 892.05 590.803 890.099 591.568C888.141 592.317 885.945 592.691 883.506 592.691ZM932.356 564.033L927.38 565.438C927.073 564.611 926.613 563.807 925.998 563.026C925.407 562.23 924.593 561.575 923.564 561.06C922.527 560.544 921.207 560.287 919.594 560.287C917.39 560.287 915.555 560.794 914.088 561.809C912.629 562.808 911.908 564.08 911.908 565.625C911.908 566.999 912.407 568.084 913.405 568.88C914.411 569.676 915.97 570.339 918.097 570.87L923.441 572.181C926.666 572.961 929.062 574.156 930.644 575.763C932.226 577.356 933.009 579.408 933.009 581.921C933.009 583.981 932.418 585.824 931.228 587.447C930.06 589.07 928.417 590.35 926.305 591.287C924.194 592.223 921.737 592.691 918.941 592.691C915.263 592.691 912.222 591.896 909.819 590.303C907.408 588.712 905.887 586.386 905.242 583.326L910.502 582.015C911.001 583.951 911.946 585.402 913.336 586.37C914.741 587.338 916.584 587.822 918.849 587.822C921.429 587.822 923.472 587.275 924.992 586.182C926.52 585.075 927.288 583.748 927.288 582.202C927.288 580.954 926.851 579.908 925.975 579.065C925.1 578.206 923.756 577.567 921.944 577.145L915.939 575.74C912.637 574.959 910.218 573.75 908.667 572.111C907.139 570.457 906.371 568.388 906.371 565.906C906.371 563.877 906.939 562.082 908.083 560.521C909.243 558.96 910.809 557.735 912.798 556.845C914.795 555.955 917.068 555.51 919.594 555.51C923.165 555.51 925.96 556.291 927.995 557.852C930.037 559.413 931.496 561.474 932.356 564.033Z" fill="white"></path>
</svg><style>@media (prefers-color-scheme: light) { :root { filter: none; } }
@media (prefers-color-scheme: dark) { :root { filter: none; } }
</style></svg>