<svg width="1146" height="300" viewBox="0 0 1146 300" fill="none" xmlns="http://www.w3.org/2000/svg">
<path d="M58 269C58 281.15 67.8497 291 80 291H163C175.15 291 185 281.15 185 269V217.5H193V268C193 285.673 178.673 300 161 300H82C64.3269 300 50 285.673 50 268V217.5H58V269ZM58 192.5H50V108H58V192.5ZM193 192.5H185V108H193V192.5ZM161 0C178.673 0 193 14.3269 193 32V64.0869C193.582 64.293 194 64.8471 194 65.5V83H185V31C185 18.8497 175.15 9 163 9H80C67.8497 9 58 18.8497 58 31V83H49V69.5C49 68.8471 49.4177 68.293 50 68.0869V60.9121C49.4178 60.706 49 60.1528 49 59.5V51.5C49 50.8471 49.4177 50.293 50 50.0869V32C50 14.3269 64.3269 0 82 0H161ZM141.5 16C145.09 16 148 18.9101 148 22.5C148 26.0899 145.09 29 141.5 29H101.5C97.9101 29 95 26.0899 95 22.5C95 18.9101 97.9101 16 101.5 16H141.5Z" fill="#0B1B2D"/>
<path d="M201.619 87.2852C213.792 90.5186 222.081 103.744 220.312 118.505C220.362 122.866 221.067 127.487 222.406 131.13C223.431 133.917 224.504 135.323 225.26 136H243V164.5H223.977C221.271 165.758 217.593 170.068 218.61 177.319L218.693 177.906V178.5C218.693 184.493 217.789 191.404 215.55 197.495C213.413 203.308 209.362 210.178 201.862 212.967L200.429 213.5H179V196.5H196.74C197.496 195.823 198.569 194.417 199.594 191.63C200.933 187.987 201.638 183.366 201.688 179.005C200.178 166.403 205.999 154.921 215.31 149.819C210.803 146.436 208.074 141.411 206.45 136.995C204.211 130.904 203.307 123.993 203.307 118V117.406L203.39 116.819C204.407 109.568 200.729 105.258 198.023 104H179V87H200.547L201.619 87.2852Z" fill="#09E7D9"/>
<path d="M41.3809 87.2852C29.2081 90.5186 20.9194 103.744 22.6885 118.505C22.6377 122.866 21.9329 127.487 20.5938 131.13C19.5693 133.917 18.4961 135.323 17.7402 136H0V164.5H19.0234C21.7286 165.758 25.407 170.068 24.3896 177.319L24.3066 177.906V178.5C24.3066 184.493 25.211 191.404 27.4502 197.495C29.587 203.308 33.6382 210.178 41.1377 212.967L42.5713 213.5H64V196.5H46.2598C45.5039 195.823 44.4307 194.417 43.4062 191.63C42.0671 187.987 41.3623 183.366 41.3115 179.005C42.8219 166.403 37.0005 154.921 27.6904 149.819C32.1966 146.436 34.9264 141.411 36.5498 136.995C38.789 130.904 39.6934 123.993 39.6934 118V117.406L39.6104 116.819C38.593 109.568 42.2714 105.258 44.9766 104H64V87H42.4531L41.3809 87.2852Z" fill="#09E7D9"/>
<path d="M60.0078 153.19V143.44L99.0078 126.266V137.484L72.3061 148.204L72.6662 147.622V149.007L72.3061 148.425L99.0078 159.145V170.363L60.0078 153.19ZM135.432 111.614L117.151 179.531H106.985L125.266 111.614H135.432ZM182.416 153.19L143.416 170.363V159.145L170.118 148.425L169.758 149.007V147.622L170.118 148.204L143.416 137.484V126.266L182.416 143.44V153.19Z" fill="#09E7D9"/>
<path d="M332.662 161H307.616L345.778 50.4545H375.898L414.006 161H388.96L361.27 75.7159H360.406L332.662 161ZM331.097 117.548H390.256V135.793H331.097V117.548ZM449.874 50.4545V161H426.879V50.4545H449.874ZM491.935 162.565C486.646 162.565 481.932 161.648 477.793 159.812C473.655 157.941 470.38 155.188 467.969 151.554C465.594 147.884 464.407 143.313 464.407 137.844C464.407 133.238 465.253 129.369 466.944 126.239C468.635 123.108 470.938 120.589 473.853 118.682C476.768 116.775 480.078 115.335 483.785 114.364C487.527 113.392 491.45 112.708 495.552 112.312C500.374 111.809 504.26 111.341 507.211 110.909C510.162 110.441 512.303 109.758 513.634 108.858C514.966 107.958 515.631 106.627 515.631 104.864V104.54C515.631 101.121 514.552 98.4763 512.393 96.6051C510.27 94.7339 507.247 93.7983 503.325 93.7983C499.186 93.7983 495.894 94.7159 493.447 96.5511C491 98.3504 489.38 100.617 488.589 103.352L467.322 101.625C468.401 96.5871 470.524 92.233 473.691 88.5625C476.858 84.8561 480.942 82.0133 485.944 80.0341C490.982 78.0189 496.811 77.0114 503.433 77.0114C508.039 77.0114 512.447 77.5511 516.657 78.6307C520.903 79.7102 524.664 81.3835 527.938 83.6506C531.249 85.9176 533.858 88.8324 535.765 92.3949C537.672 95.9214 538.626 100.15 538.626 105.08V161H516.819V149.503H516.171C514.84 152.094 513.058 154.379 510.827 156.358C508.596 158.301 505.915 159.83 502.785 160.946C499.654 162.026 496.038 162.565 491.935 162.565ZM498.521 146.696C501.903 146.696 504.89 146.03 507.481 144.699C510.072 143.331 512.105 141.496 513.58 139.193C515.056 136.89 515.793 134.281 515.793 131.366V122.568C515.074 123.036 514.084 123.468 512.825 123.864C511.601 124.223 510.216 124.565 508.668 124.889C507.121 125.177 505.574 125.447 504.026 125.699C502.479 125.915 501.076 126.113 499.816 126.293C497.117 126.688 494.76 127.318 492.745 128.182C490.73 129.045 489.165 130.215 488.049 131.69C486.933 133.13 486.376 134.929 486.376 137.088C486.376 140.219 487.509 142.612 489.776 144.267C492.079 145.886 494.994 146.696 498.521 146.696ZM579.46 113.068V161H556.465V78.0909H578.38V92.7188H579.352C581.187 87.8968 584.263 84.0824 588.582 81.2756C592.9 78.4328 598.136 77.0114 604.289 77.0114C610.047 77.0114 615.067 78.2708 619.349 80.7898C623.631 83.3087 626.96 86.9072 629.335 91.5852C631.71 96.2273 632.897 101.769 632.897 108.21V161H609.903V112.312C609.939 107.239 608.643 103.28 606.016 100.438C603.389 97.5587 599.773 96.1193 595.167 96.1193C592.072 96.1193 589.337 96.785 586.962 98.1165C584.623 99.4479 582.788 101.391 581.457 103.946C580.161 106.465 579.496 109.506 579.46 113.068ZM705.685 161H680.64L718.802 50.4545H748.921L787.029 161H761.984L734.293 75.7159H733.43L705.685 161ZM704.12 117.548H763.279V135.793H704.12V117.548ZM822.897 113.068V161H799.903V78.0909H821.817V92.7188H822.789C824.624 87.8968 827.701 84.0824 832.019 81.2756C836.337 78.4328 841.573 77.0114 847.727 77.0114C853.484 77.0114 858.504 78.2708 862.786 80.7898C867.068 83.3087 870.397 86.9072 872.772 91.5852C875.147 96.2273 876.335 101.769 876.335 108.21V161H853.34V112.312C853.376 107.239 852.081 103.28 849.454 100.438C846.827 97.5587 843.21 96.1193 838.604 96.1193C835.51 96.1193 832.775 96.785 830.4 98.1165C828.061 99.4479 826.226 101.391 824.894 103.946C823.599 106.465 822.933 109.506 822.897 113.068ZM918.099 162.565C912.81 162.565 908.096 161.648 903.957 159.812C899.819 157.941 896.545 155.188 894.134 151.554C891.759 147.884 890.571 143.313 890.571 137.844C890.571 133.238 891.417 129.369 893.108 126.239C894.799 123.108 897.102 120.589 900.017 118.682C902.932 116.775 906.242 115.335 909.949 114.364C913.691 113.392 917.614 112.708 921.716 112.312C926.538 111.809 930.424 111.341 933.375 110.909C936.326 110.441 938.467 109.758 939.798 108.858C941.13 107.958 941.795 106.627 941.795 104.864V104.54C941.795 101.121 940.716 98.4763 938.557 96.6051C936.434 94.7339 933.411 93.7983 929.489 93.7983C925.35 93.7983 922.058 94.7159 919.611 96.5511C917.164 98.3504 915.545 100.617 914.753 103.352L893.486 101.625C894.565 96.5871 896.688 92.233 899.855 88.5625C903.022 84.8561 907.106 82.0133 912.108 80.0341C917.146 78.0189 922.975 77.0114 929.597 77.0114C934.203 77.0114 938.611 77.5511 942.821 78.6307C947.067 79.7102 950.828 81.3835 954.102 83.6506C957.413 85.9176 960.022 88.8324 961.929 92.3949C963.836 95.9214 964.79 100.15 964.79 105.08V161H942.983V149.503H942.335C941.004 152.094 939.223 154.379 936.991 156.358C934.76 158.301 932.08 159.83 928.949 160.946C925.818 162.026 922.202 162.565 918.099 162.565ZM924.685 146.696C928.067 146.696 931.054 146.03 933.645 144.699C936.236 143.331 938.269 141.496 939.744 139.193C941.22 136.89 941.957 134.281 941.957 131.366V122.568C941.238 123.036 940.248 123.468 938.989 123.864C937.765 124.223 936.38 124.565 934.832 124.889C933.285 125.177 931.738 125.447 930.19 125.699C928.643 125.915 927.24 126.113 925.98 126.293C923.281 126.688 920.924 127.318 918.909 128.182C916.894 129.045 915.329 130.215 914.213 131.69C913.098 133.13 912.54 134.929 912.54 137.088C912.54 140.219 913.673 142.612 915.94 144.267C918.243 145.886 921.158 146.696 924.685 146.696ZM993.857 192.091C990.942 192.091 988.207 191.857 985.652 191.389C983.133 190.957 981.046 190.4 979.391 189.716L984.572 172.551C987.271 173.379 989.7 173.829 991.859 173.901C994.054 173.973 995.944 173.469 997.527 172.389C999.146 171.31 1000.46 169.474 1001.47 166.884L1002.82 163.375L973.075 78.0909H997.257L1014.42 138.977H1015.29L1032.61 78.0909H1056.96L1024.73 169.96C1023.18 174.422 1021.08 178.309 1018.42 181.619C1015.79 184.966 1012.46 187.539 1008.43 189.338C1004.4 191.173 999.542 192.091 993.857 192.091ZM1090.14 162.565C1084.85 162.565 1080.13 161.648 1076 159.812C1071.86 157.941 1068.58 155.188 1066.17 151.554C1063.8 147.884 1062.61 143.313 1062.61 137.844C1062.61 133.238 1063.46 129.369 1065.15 126.239C1066.84 123.108 1069.14 120.589 1072.06 118.682C1074.97 116.775 1078.28 115.335 1081.99 114.364C1085.73 113.392 1089.65 112.708 1093.75 112.312C1098.58 111.809 1102.46 111.341 1105.41 110.909C1108.36 110.441 1110.51 109.758 1111.84 108.858C1113.17 107.958 1113.83 106.627 1113.83 104.864V104.54C1113.83 101.121 1112.75 98.4763 1110.6 96.6051C1108.47 94.7339 1105.45 93.7983 1101.53 93.7983C1097.39 93.7983 1094.1 94.7159 1091.65 96.5511C1089.2 98.3504 1087.58 100.617 1086.79 103.352L1065.52 101.625C1066.6 96.5871 1068.73 92.233 1071.89 88.5625C1075.06 84.8561 1079.15 82.0133 1084.15 80.0341C1089.18 78.0189 1095.01 77.0114 1101.64 77.0114C1106.24 77.0114 1110.65 77.5511 1114.86 78.6307C1119.11 79.7102 1122.87 81.3835 1126.14 83.6506C1129.45 85.9176 1132.06 88.8324 1133.97 92.3949C1135.88 95.9214 1136.83 100.15 1136.83 105.08V161H1115.02V149.503H1114.37C1113.04 152.094 1111.26 154.379 1109.03 156.358C1106.8 158.301 1104.12 159.83 1100.99 160.946C1097.86 162.026 1094.24 162.565 1090.14 162.565ZM1096.72 146.696C1100.11 146.696 1103.09 146.03 1105.68 144.699C1108.27 143.331 1110.31 141.496 1111.78 139.193C1113.26 136.89 1114 134.281 1114 131.366V122.568C1113.28 123.036 1112.29 123.468 1111.03 123.864C1109.8 124.223 1108.42 124.565 1106.87 124.889C1105.32 125.177 1103.78 125.447 1102.23 125.699C1100.68 125.915 1099.28 126.113 1098.02 126.293C1095.32 126.688 1092.96 127.318 1090.95 128.182C1088.93 129.045 1087.37 130.215 1086.25 131.69C1085.14 133.13 1084.58 134.929 1084.58 137.088C1084.58 140.219 1085.71 142.612 1087.98 144.267C1090.28 145.886 1093.2 146.696 1096.72 146.696Z" fill="#0B1B2D"/>
<rect x="307" y="197" width="11" height="88" fill="#09E7D9"/>
<path d="M353.574 209.455H362.614L383.869 261.372H384.602L405.858 209.455H414.898V272H407.812V224.48H407.202L387.656 272H380.815L361.27 224.48H360.659V272H353.574V209.455ZM448.163 272.977C443.928 272.977 440.213 271.969 437.016 269.954C433.84 267.938 431.356 265.118 429.564 261.494C427.793 257.87 426.907 253.635 426.907 248.79C426.907 243.903 427.793 239.638 429.564 235.994C431.356 232.349 433.84 229.519 437.016 227.504C440.213 225.488 443.928 224.48 448.163 224.48C452.398 224.48 456.104 225.488 459.28 227.504C462.476 229.519 464.96 232.349 466.731 235.994C468.523 239.638 469.419 243.903 469.419 248.79C469.419 253.635 468.523 257.87 466.731 261.494C464.96 265.118 462.476 267.938 459.28 269.954C456.104 271.969 452.398 272.977 448.163 272.977ZM448.163 266.503C451.38 266.503 454.027 265.678 456.104 264.029C458.18 262.38 459.717 260.212 460.715 257.524C461.713 254.837 462.211 251.925 462.211 248.79C462.211 245.654 461.713 242.733 460.715 240.025C459.717 237.317 458.18 235.128 456.104 233.459C454.027 231.789 451.38 230.955 448.163 230.955C444.946 230.955 442.3 231.789 440.223 233.459C438.146 235.128 436.609 237.317 435.611 240.025C434.614 242.733 434.115 245.654 434.115 248.79C434.115 251.925 434.614 254.837 435.611 257.524C436.609 260.212 438.146 262.38 440.223 264.029C442.3 265.678 444.946 266.503 448.163 266.503ZM481.398 272V209.455H488.605V232.543H489.216C489.746 231.728 490.479 230.69 491.415 229.428C492.372 228.145 493.736 227.005 495.507 226.007C497.299 224.989 499.722 224.48 502.776 224.48C506.726 224.48 510.207 225.468 513.221 227.442C516.234 229.417 518.585 232.217 520.275 235.841C521.965 239.465 522.81 243.741 522.81 248.668C522.81 253.635 521.965 257.942 520.275 261.586C518.585 265.21 516.244 268.02 513.251 270.015C510.258 271.99 506.807 272.977 502.898 272.977C499.885 272.977 497.472 272.478 495.66 271.481C493.848 270.463 492.453 269.312 491.476 268.03C490.499 266.727 489.746 265.648 489.216 264.793H488.361V272H481.398ZM488.483 248.545C488.483 252.088 489.002 255.213 490.041 257.921C491.079 260.609 492.596 262.716 494.591 264.243C496.587 265.75 499.03 266.503 501.921 266.503C504.934 266.503 507.449 265.709 509.464 264.121C511.5 262.512 513.027 260.354 514.045 257.646C515.083 254.918 515.603 251.884 515.603 248.545C515.603 245.247 515.094 242.275 514.076 239.628C513.078 236.961 511.561 234.853 509.525 233.306C507.51 231.738 504.975 230.955 501.921 230.955C498.989 230.955 496.525 231.698 494.53 233.184C492.535 234.65 491.028 236.706 490.01 239.353C488.992 241.979 488.483 245.044 488.483 248.545ZM533.835 272V225.091H541.042V272H533.835ZM537.5 217.273C536.095 217.273 534.883 216.794 533.865 215.837C532.868 214.88 532.369 213.73 532.369 212.386C532.369 211.043 532.868 209.892 533.865 208.935C534.883 207.978 536.095 207.5 537.5 207.5C538.904 207.5 540.106 207.978 541.103 208.935C542.121 209.892 542.63 211.043 542.63 212.386C542.63 213.73 542.121 214.88 541.103 215.837C540.106 216.794 538.904 217.273 537.5 217.273ZM561.45 209.455V272H554.243V209.455H561.45ZM594.319 272.977C589.799 272.977 585.9 271.98 582.622 269.984C579.365 267.969 576.85 265.159 575.079 261.555C573.328 257.931 572.452 253.717 572.452 248.912C572.452 244.107 573.328 239.872 575.079 236.207C576.85 232.522 579.314 229.652 582.469 227.595C585.646 225.518 589.351 224.48 593.586 224.48C596.029 224.48 598.442 224.887 600.824 225.702C603.206 226.516 605.374 227.839 607.329 229.672C609.283 231.484 610.841 233.886 612.001 236.879C613.162 239.872 613.742 243.557 613.742 247.935V250.989H577.583V244.759H606.413C606.413 242.112 605.883 239.75 604.825 237.673C603.786 235.597 602.3 233.958 600.366 232.756C598.452 231.555 596.192 230.955 593.586 230.955C590.715 230.955 588.231 231.667 586.134 233.092C584.058 234.497 582.459 236.33 581.339 238.589C580.22 240.849 579.66 243.272 579.66 245.858V250.011C579.66 253.554 580.271 256.557 581.492 259.021C582.734 261.464 584.455 263.327 586.653 264.609C588.852 265.872 591.407 266.503 594.319 266.503C596.212 266.503 597.923 266.238 599.45 265.709C600.997 265.159 602.33 264.345 603.45 263.266C604.57 262.166 605.435 260.802 606.046 259.173L613.009 261.128C612.276 263.49 611.045 265.566 609.314 267.358C607.583 269.129 605.446 270.514 602.901 271.511C600.356 272.489 597.495 272.977 594.319 272.977ZM669.172 272H649.871V209.455H670.027C676.094 209.455 681.286 210.707 685.602 213.211C689.919 215.695 693.227 219.268 695.528 223.93C697.828 228.572 698.979 234.131 698.979 240.605C698.979 247.12 697.818 252.729 695.497 257.433C693.176 262.115 689.796 265.719 685.358 268.244C680.92 270.748 675.524 272 669.172 272ZM657.445 265.281H668.683C673.855 265.281 678.14 264.284 681.54 262.288C684.941 260.293 687.475 257.453 689.145 253.768C690.814 250.083 691.649 245.695 691.649 240.605C691.649 235.556 690.825 231.209 689.175 227.565C687.526 223.9 685.063 221.09 681.785 219.136C678.507 217.161 674.425 216.173 669.538 216.173H657.445V265.281ZM730.374 272.977C725.854 272.977 721.955 271.98 718.677 269.984C715.419 267.969 712.905 265.159 711.134 261.555C709.383 257.931 708.507 253.717 708.507 248.912C708.507 244.107 709.383 239.872 711.134 236.207C712.905 232.522 715.368 229.652 718.524 227.595C721.7 225.518 725.406 224.48 729.641 224.48C732.084 224.48 734.496 224.887 736.879 225.702C739.261 226.516 741.429 227.839 743.384 229.672C745.338 231.484 746.896 233.886 748.056 236.879C749.217 239.872 749.797 243.557 749.797 247.935V250.989H713.638V244.759H742.467C742.467 242.112 741.938 239.75 740.879 237.673C739.841 235.597 738.355 233.958 736.42 232.756C734.507 231.555 732.247 230.955 729.641 230.955C726.77 230.955 724.286 231.667 722.189 233.092C720.112 234.497 718.514 236.33 717.394 238.589C716.274 240.849 715.714 243.272 715.714 245.858V250.011C715.714 253.554 716.325 256.557 717.547 259.021C718.789 261.464 720.509 263.327 722.708 264.609C724.907 265.872 727.462 266.503 730.374 266.503C732.267 266.503 733.977 266.238 735.504 265.709C737.052 265.159 738.385 264.345 739.505 263.266C740.625 262.166 741.49 260.802 742.101 259.173L749.064 261.128C748.331 263.49 747.099 265.566 745.369 267.358C743.638 269.129 741.5 270.514 738.955 271.511C736.41 272.489 733.55 272.977 730.374 272.977ZM797.691 225.091L780.344 272H773.015L755.668 225.091H763.486L776.435 262.472H776.924L789.873 225.091H797.691ZM881.965 209.455V272H874.636L840.553 222.892H839.943V272H832.369V209.455H839.698L873.903 258.685H874.514V209.455H881.965ZM915.2 272.977C910.965 272.977 907.25 271.969 904.053 269.954C900.877 267.938 898.393 265.118 896.602 261.494C894.83 257.87 893.945 253.635 893.945 248.79C893.945 243.903 894.83 239.638 896.602 235.994C898.393 232.349 900.877 229.519 904.053 227.504C907.25 225.488 910.965 224.48 915.2 224.48C919.435 224.48 923.141 225.488 926.317 227.504C929.513 229.519 931.997 232.349 933.768 235.994C935.56 239.638 936.456 243.903 936.456 248.79C936.456 253.635 935.56 257.87 933.768 261.494C931.997 265.118 929.513 267.938 926.317 269.954C923.141 271.969 919.435 272.977 915.2 272.977ZM915.2 266.503C918.417 266.503 921.064 265.678 923.141 264.029C925.217 262.38 926.754 260.212 927.752 257.524C928.75 254.837 929.249 251.925 929.249 248.79C929.249 245.654 928.75 242.733 927.752 240.025C926.754 237.317 925.217 235.128 923.141 233.459C921.064 231.789 918.417 230.955 915.2 230.955C911.983 230.955 909.337 231.789 907.26 233.459C905.183 235.128 903.646 237.317 902.648 240.025C901.651 242.733 901.152 245.654 901.152 248.79C901.152 251.925 901.651 254.837 902.648 257.524C903.646 260.212 905.183 262.38 907.26 264.029C909.337 265.678 911.983 266.503 915.2 266.503ZM967.858 225.091V231.199H943.549V225.091H967.858ZM950.634 213.852H957.841V258.562C957.841 260.598 958.137 262.125 958.727 263.143C959.338 264.141 960.112 264.813 961.048 265.159C962.005 265.485 963.013 265.648 964.072 265.648C964.866 265.648 965.517 265.607 966.026 265.526C966.535 265.424 966.942 265.342 967.248 265.281L968.714 271.756C968.225 271.939 967.543 272.122 966.667 272.305C965.792 272.509 964.682 272.611 963.339 272.611C961.303 272.611 959.307 272.173 957.353 271.298C955.419 270.422 953.81 269.089 952.528 267.297C951.265 265.505 950.634 263.245 950.634 260.517V213.852ZM997.864 272.977C993.344 272.977 989.445 271.98 986.167 269.984C982.91 267.969 980.395 265.159 978.624 261.555C976.873 257.931 975.997 253.717 975.997 248.912C975.997 244.107 976.873 239.872 978.624 236.207C980.395 232.522 982.859 229.652 986.014 227.595C989.191 225.518 992.896 224.48 997.131 224.48C999.574 224.48 1001.99 224.887 1004.37 225.702C1006.75 226.516 1008.92 227.839 1010.87 229.672C1012.83 231.484 1014.39 233.886 1015.55 236.879C1016.71 239.872 1017.29 243.557 1017.29 247.935V250.989H981.128V244.759H1009.96C1009.96 242.112 1009.43 239.75 1008.37 237.673C1007.33 235.597 1005.84 233.958 1003.91 232.756C1002 231.555 999.737 230.955 997.131 230.955C994.26 230.955 991.776 231.667 989.679 233.092C987.602 234.497 986.004 236.33 984.884 238.589C983.765 240.849 983.205 243.272 983.205 245.858V250.011C983.205 253.554 983.816 256.557 985.037 259.021C986.279 261.464 987.999 263.327 990.198 264.609C992.397 265.872 994.952 266.503 997.864 266.503C999.757 266.503 1001.47 266.238 1002.99 265.709C1004.54 265.159 1005.88 264.345 1007 263.266C1008.11 262.166 1008.98 260.802 1009.59 259.173L1016.55 261.128C1015.82 263.49 1014.59 265.566 1012.86 267.358C1011.13 269.129 1008.99 270.514 1006.45 271.511C1003.9 272.489 1001.04 272.977 997.864 272.977ZM1061.48 235.597L1055 237.429C1054.6 236.35 1054 235.301 1053.2 234.283C1052.43 233.245 1051.37 232.39 1050.03 231.718C1048.68 231.046 1046.96 230.71 1044.86 230.71C1041.99 230.71 1039.6 231.372 1037.69 232.695C1035.79 233.998 1034.85 235.658 1034.85 237.673C1034.85 239.465 1035.5 240.88 1036.8 241.918C1038.11 242.957 1040.14 243.822 1042.91 244.514L1049.87 246.224C1054.07 247.242 1057.19 248.8 1059.25 250.897C1061.31 252.974 1062.33 255.651 1062.33 258.929C1062.33 261.616 1061.56 264.019 1060.01 266.136C1058.49 268.254 1056.35 269.923 1053.6 271.145C1050.85 272.366 1047.65 272.977 1044.01 272.977C1039.22 272.977 1035.26 271.939 1032.13 269.862C1028.99 267.786 1027.01 264.752 1026.17 260.761L1033.02 259.051C1033.67 261.576 1034.9 263.469 1036.71 264.732C1038.54 265.994 1040.94 266.625 1043.89 266.625C1047.25 266.625 1049.91 265.912 1051.89 264.487C1053.88 263.042 1054.88 261.311 1054.88 259.295C1054.88 257.667 1054.31 256.303 1053.17 255.203C1052.03 254.083 1050.28 253.249 1047.92 252.699L1040.1 250.866C1035.8 249.848 1032.65 248.271 1030.63 246.133C1028.64 243.975 1027.64 241.277 1027.64 238.04C1027.64 235.393 1028.38 233.052 1029.87 231.016C1031.38 228.98 1033.42 227.381 1036.01 226.221C1038.61 225.06 1041.57 224.48 1044.86 224.48C1049.51 224.48 1053.15 225.498 1055.8 227.534C1058.46 229.57 1060.36 232.258 1061.48 235.597Z" fill="#0B1B2D"/>
</svg>
